<svg xmlns="http://www.w3.org/2000/svg" viewBox="0 0 30 30"><defs><style>.a{fill:#8f9093;}</style></defs><path class="a" d="M9304.285,17502h-12.569a8.726,8.726,0,0,1-8.714-8.717v-12.57a8.723,8.723,0,0,1,8.714-8.713h12.577a8.726,8.726,0,0,1,8.709,8.713v12.574A8.727,8.727,0,0,1,9304.285,17502Zm-14.763-19.7c-.5,0-1.028,0-1.49.012-.292.01-.483.078-.572.217a.688.688,0,0,0,.041.645,38.356,38.356,0,0,0,3.857,7.031,9.594,9.594,0,0,0,2.93,2.8,7.41,7.41,0,0,0,3.853.971c.146,0,.311,0,.5-.012.726-.033.934-.238.966-.959a3.274,3.274,0,0,1,.323-1.453.644.644,0,0,1,.56-.41.834.834,0,0,1,.448.16,2.879,2.879,0,0,1,.552.5c.092.1.183.205.274.311.044.055.089.1.136.154.267.311.527.607.806.9a2.355,2.355,0,0,0,1.736.811c.066,0,.133,0,.2-.008h3.04a.572.572,0,0,0,.478-.309.956.956,0,0,0-.015-.9,6.262,6.262,0,0,0-.733-1.08,18.26,18.26,0,0,0-1.479-1.557c-.214-.205-.4-.387-.563-.549-.627-.623-.664-.988-.165-1.7.285-.408.585-.809.874-1.2l.007-.012c.279-.373.551-.742.81-1.113l.056-.076.008-.014a8.017,8.017,0,0,0,1.255-2.238.779.779,0,0,0,0-.627.738.738,0,0,0-.542-.271,1.618,1.618,0,0,0-.29-.018l-3.311,0h-.033a.732.732,0,0,0-.743.543c-.189.479-.395.99-.629,1.48a12.2,12.2,0,0,1-1.936,3.041l-.04.045c-.139.15-.295.322-.5.322a.433.433,0,0,1-.144-.025c-.381-.139-.493-.783-.487-.99v-3.91c-.079-.557-.2-.807-.739-.912h-3.437a1.083,1.083,0,0,0-.931.469c-.069.084-.127.166-.1.23s.086.084.209.109a1.158,1.158,0,0,1,.976,1.072,11.855,11.855,0,0,1,.048,2.813,2.7,2.7,0,0,1-.173.8c-.1.25-.248.375-.426.375a.639.639,0,0,1-.361-.139,3.174,3.174,0,0,1-.763-.852,18.942,18.942,0,0,1-2.018-3.83.887.887,0,0,0-.831-.633C9290.551,17482.3,9290.027,17482.3,9289.522,17482.3Z" transform="translate(-9283.002 -17471.998)"/></svg>