<svg xmlns="http://www.w3.org/2000/svg" viewBox="0 0 30 30.002"><defs><style>.a{fill:#8f9093;}</style></defs><path class="a" d="M9304.287,17502h-12.571a8.727,8.727,0,0,1-8.715-8.719v-12.568a8.725,8.725,0,0,1,8.715-8.715h12.575a8.719,8.719,0,0,1,8.71,8.715v12.572A8.725,8.725,0,0,1,9304.287,17502Zm-6.724-16.7c-2.159,0-4.432.025-6.753.076a2.866,2.866,0,0,0-2.811,2.867v7.033a2.87,2.87,0,0,0,2.811,2.873c2.45.051,4.658.074,6.752.074s4.3-.023,6.751-.074a2.87,2.87,0,0,0,2.811-2.873v-7.033a2.866,2.866,0,0,0-2.811-2.867C9302,17485.328,9299.725,17485.3,9297.563,17485.3Zm-.643-8.213a1.688,1.688,0,0,0-1.687,1.688v3.3a1.687,1.687,0,0,0,3.373,0v-3.3A1.688,1.688,0,0,0,9296.921,17477.09Zm2.675.158h0v5.438a1.607,1.607,0,0,0,.079.475.7.7,0,0,0,.721.531,1.3,1.3,0,0,0,.232-.021,1.583,1.583,0,0,0,.751-.391,3.744,3.744,0,0,0,.27-.262l.027-.027.063-.066v.684h1.182v-6.359h-1.182v4.734a.175.175,0,0,1-.018.1,1.249,1.249,0,0,1-.566.436.393.393,0,0,1-.113.021.266.266,0,0,1-.26-.25.988.988,0,0,1-.018-.193v-4.85Zm-8.557-2.25h0s1.032,3.418,1.494,4.943a.793.793,0,0,1,.021.17v3.492h1.234v-3.492a.573.573,0,0,1,.026-.17c.461-1.525,1.489-4.943,1.489-4.943h-1.34l-.791,3.357c-.25-1.047-.784-3.33-.79-3.357Zm12.751,21.1a1.668,1.668,0,0,1-.7-.143,1.507,1.507,0,0,1-.87-1.111,3.309,3.309,0,0,1-.088-.711c-.008-.887,0-1.789,0-2.635v-.182a1.886,1.886,0,0,1,.453-1.316,1.627,1.627,0,0,1,1.282-.559c.052,0,.1,0,.153,0a1.911,1.911,0,0,1,.5.088,1.4,1.4,0,0,1,.949,1.129,3.17,3.17,0,0,1,.062.641c.008.414,0,1.244,0,1.582v.021h-2.205v1.582a.512.512,0,1,0,1.023,0v-.812h1.186a.075.075,0,0,1,0,.02,5.477,5.477,0,0,1-.133,1.377,1.418,1.418,0,0,1-1.217.992A2.393,2.393,0,0,1,9303.79,17496.1Zm.049-5.576a.517.517,0,0,0-.514.52v.887h1.023v-.887A.515.515,0,0,0,9303.839,17490.521Zm-9.544,5.492a1.193,1.193,0,0,1-.177-.014.655.655,0,0,1-.522-.414,1.588,1.588,0,0,1-.118-.662c0-.807,0-4.861,0-5.32h1.151v.18c0,.7,0,3.258,0,4.6a1.17,1.17,0,0,0,.018.25.277.277,0,0,0,.273.252.382.382,0,0,0,.131-.023,1.237,1.237,0,0,0,.554-.439c.021-.021.021-.074.021-.113v-4.713h1.15v6.324h-1.15v-.7l-.067.076,0,.006-.011.014a2.091,2.091,0,0,1-.888.633A1.1,1.1,0,0,1,9294.295,17496.014Zm5.89-.01h-.014a1.269,1.269,0,0,1-.979-.449c-.03-.029-.114-.117-.114-.117v.482h-1.15v-8.564h1.15v2.814a.155.155,0,0,1,.013-.023,1.114,1.114,0,0,1,.115-.17,1.282,1.282,0,0,1,.663-.422,1.186,1.186,0,0,1,.286-.037.968.968,0,0,1,.9.578,2.2,2.2,0,0,1,.185.963c0,1.191,0,2.4,0,3.592a1.976,1.976,0,0,1-.1.66A.935.935,0,0,1,9300.185,17496Zm-.606-5.488a.638.638,0,0,0-.422.178.305.305,0,0,0-.074.123v3.9l.01.01c.011.014.026.031.029.037a.684.684,0,0,0,.532.26.366.366,0,0,0,.382-.32.746.746,0,0,0,.021-.193q0-.422,0-.844c0-.283,0-.568,0-.852s0-.566,0-.85,0-.566,0-.85a1.094,1.094,0,0,0-.083-.357.375.375,0,0,0-.343-.236A.485.485,0,0,0,9299.578,17490.516Zm-7.445,5.4h-1.3v-7.34h-1.344v-1.225h3.988v1.221h-1.345v7.344Zm4.788-13.287a.488.488,0,0,1-.487-.488v-3.434a.487.487,0,1,1,.975,0v3.434A.488.488,0,0,1,9296.921,17482.633Z" transform="translate(-9283.001 -17471.998)"/></svg>