<svg xmlns="http://www.w3.org/2000/svg" width="20" height="20" viewBox="0 0 20 20"><defs><style>.a{fill:#ef5c3a;}</style></defs><g transform="translate(0 -2.95)"><g transform="translate(0 2.95)"><path class="a" d="M.185,9.789.1,3.525A.566.566,0,0,1,.667,2.95l6.188.091a.568.568,0,0,1,.389.969L5.522,5.753l2.863,2.9L5.727,11.341l-2.863-2.9L1.142,10.186A.562.562,0,0,1,.185,9.789Z" transform="translate(-0.095 -2.95)"/><path class="a" d="M291.821,9.439l1.722,1.743a.56.56,0,0,0,.957-.393l.09-6.264a.566.566,0,0,0-.568-.575l-6.188.091a.568.568,0,0,0-.389.969l1.718,1.735-2.863,2.9,2.658,2.691Z" transform="translate(-274.59 -3.908)"/><path class="a" d="M287.345,290.779a.568.568,0,0,0,.389.969l6.188.091a.566.566,0,0,0,.569-.575L294.4,285a.56.56,0,0,0-.957-.393l-1.722,1.743-2.863-2.9-2.658,2.691,2.863,2.9Z" transform="translate(-274.494 -271.839)"/><path class="a" d="M.573,290.838l6.188-.091a.568.568,0,0,0,.389-.969L5.427,288.04l2.863-2.9-2.658-2.691-2.863,2.9-1.722-1.743A.56.56,0,0,0,.09,284L0,290.263A.572.572,0,0,0,.573,290.838Z" transform="translate(0 -270.88)"/></g></g></svg>